<svg width="192" height="192" viewBox="0 0 192 192" xmlns="http://www.w3.org/2000/svg">
  <defs>
    <linearGradient id="grad" x1="0%" y1="0%" x2="100%" y2="100%">
      <stop offset="0%" style="stop-color:#153263;stop-opacity:1" />
      <stop offset="100%" style="stop-color:#00102B;stop-opacity:1" />
    </linearGradient>
  </defs>
  <rect width="192" height="192" fill="url(#grad)" rx="20"/>
  <rect x="20" y="20" width="152" height="152" fill="none" stroke="#FFFFFF" stroke-width="4" rx="10"/>
  <rect x="40" y="40" width="20" height="20" fill="#FFFFFF"/>
  <rect x="70" y="40" width="20" height="20" fill="#FFFFFF"/>
  <rect x="100" y="40" width="20" height="20" fill="#FFFFFF"/>
  <rect x="130" y="40" width="20" height="20" fill="#FFFFFF"/>
  
  <rect x="40" y="70" width="20" height="20" fill="#FFFFFF"/>
  <rect x="100" y="70" width="20" height="20" fill="#FFFFFF"/>
  <rect x="130" y="70" width="20" height="20" fill="#FFFFFF"/>
  
  <rect x="40" y="100" width="20" height="20" fill="#FFFFFF"/>
  <rect x="70" y="100" width="20" height="20" fill="#FFFFFF"/>
  <rect x="130" y="100" width="20" height="20" fill="#FFFFFF"/>
  
  <rect x="40" y="130" width="20" height="20" fill="#FFFFFF"/>
  <rect x="70" y="130" width="20" height="20" fill="#FFFFFF"/>
  <rect x="100" y="130" width="20" height="20" fill="#FFFFFF"/>
  
  <text x="96" y="170" text-anchor="middle" fill="#FFFFFF" font-family="Arial" font-size="16" font-weight="bold">QR</text>
</svg>
